<svg xmlns="http://www.w3.org/2000/svg" xmlns:xlink="http://www.w3.org/1999/xlink" xmlns:svgjs="http://svgjs.com/svgjs" id="SvgjsSvg1001" width="288" height="288" version="1.1"><defs id="SvgjsDefs1002"/><g id="SvgjsG1008"><svg xmlns="http://www.w3.org/2000/svg" viewBox="0 0 120 120" width="288" height="288"><g fill-rule="evenodd" transform="translate(0 -932.362)"><circle cx="60" cy="992.362" r="60" fill="#239fdb" class="svgShape color239fdb-1 selectable"/><path fill="#1d7dc9" d="M119.75 997.378a60 60 0 0 0 .121-2.428L89.11 969.137c-.038-.032-.09-.05-.136-.074-.031-.016-.056-.037-.09-.049a.97.97 0 0 0-.32-.052c-.5 0-.8.3-.8.8 0 .13.029.244.075.344.013.029.036.048.053.074.04.066.083.13.14.18.004.003.005.009.008.012l3.033 2.545c0 .015-.01.03-.01.045a.7.7 0 0 0 .084.314c.015.029.037.051.055.078.044.068.09.131.15.186.01.008.014.02.024.029l28.375 23.809zm-36.307 50.144a60 60 0 0 0 3.772-1.687 60 60 0 0 0 5.203-2.985 60 60 0 0 0 4.879-3.488 60 60 0 0 0 4.506-3.959 60 60 0 0 0 4.088-4.389 60 60 0 0 0 3.629-4.773 60 60 0 0 0 3.134-5.113 60 60 0 0 0 2.61-5.4 60 60 0 0 0 2.056-5.636 60 60 0 0 0 1.485-5.81 60 60 0 0 0 .896-5.93 60 60 0 0 0 .041-.826l-33.834-28.39c-.04-.034-.093-.054-.142-.079-.029-.014-.052-.032-.082-.043a.971.971 0 0 0-.32-.052c-.376 0-.639.169-.747.464a.98.98 0 0 0-.047.293l-8.42-7.064c-.038-.032-.084-.05-.127-.076-.029-.018-.055-.04-.085-.053a.685.685 0 0 0-.276-.064c-.5 0-.799.4-.799.8 0 .13.028.244.075.344.013.029.036.048.052.074.041.066.084.13.14.18.004.003.005.009.009.012l3.05 2.558v.002c-.007.045-.027.081-.027.13 0 .128.028.242.074.343.019.04.05.068.075.103.036.053.068.108.115.149.005.004.007.011.011.016l2.946 2.47c-.003.027-.01.049-.012.076l-8.42-7.064c-.038-.032-.084-.05-.127-.076-.03-.018-.055-.04-.086-.053a.685.685 0 0 0-.275-.064c-.5 0-.8.4-.8.8 0 .008.003.013.003.02l-8.379-7.031c-.049-.041-.107-.066-.164-.094-.026-.013-.047-.033-.074-.043a.82.82 0 0 0-.285-.053c-.5 0-.801.301-.801.801 0 .129.028.243.074.344.019.04.05.068.074.103.036.053.069.108.116.149.004.004.006.011.011.015l2.95 2.475c-.008.038-.026.075-.026.113a.7.7 0 0 0 .084.315c.014.028.037.05.055.078.044.067.09.13.15.185.01.009.014.022.024.03l3.002 2.52c-.003.024-.014.048-.014.073 0 .008.004.013.004.02l-8.38-7.031c-.049-.042-.11-.068-.167-.096-.025-.012-.046-.031-.072-.041a.817.817 0 0 0-.285-.053c-.5 0-.8.301-.8.801a.95.95 0 0 0 .065.35c.014.035.038.06.057.091.034.059.067.118.115.163.007.006.01.017.018.023l2.96 2.484c-.003.03-.015.058-.015.088a.7.7 0 0 0 .084.315c.014.028.037.05.055.078.043.067.09.13.15.185.01.009.014.022.023.03l2.92 2.45c-.01.049-.033.095-.033.143 0 .13.028.244.074.344.014.029.037.048.053.074a.77.77 0 0 0 .139.18c.004.003.006.009.01.012l3.046 2.556c-.004.032-.014.059-.015.092l-8.416-7.062c-.04-.034-.088-.054-.133-.08-.028-.017-.051-.038-.08-.051a.693.693 0 0 0-.278-.065c-.5 0-.798.4-.798.8 0 .108.026.215.068.316.014.033.038.06.057.091a.772.772 0 0 0 .13.174c.012.012.017.029.03.04l2.935 2.462c-.006.04-.021.077-.021.117 0 .13.028.244.074.344.013.029.037.048.053.074a.77.77 0 0 0 .139.18c.003.003.005.009.01.012l2.964 2.488c-.016.066-.04.126-.04.201 0 .13.027.243.073.344.019.04.05.068.075.103.036.053.068.108.115.149.005.004.007.011.011.016l3.034 2.544v.002l-8.42-7.064c-.039-.032-.084-.05-.127-.076-.03-.018-.055-.04-.086-.053a.685.685 0 0 0-.276-.064c-.5 0-.798.4-.798.8 0 .131.023.246.062.348.014.036.04.06.059.092.034.06.068.119.117.164.006.006.009.016.016.021l2.974 2.496c-.01.06-.03.112-.03.178 0 .13.029.243.075.344.019.04.05.068.074.103.036.053.069.108.116.149.004.004.006.011.011.016l2.948 2.472c-.003.015-.009.028-.01.043l-8.399-7.047c-.032-.027-.075-.042-.113-.064-.03-.018-.056-.04-.09-.053a.81.81 0 0 0-.31-.062c-.5 0-.801.4-.801.8 0 .13.028.244.074.344.013.029.037.048.053.074a.77.77 0 0 0 .139.18c.003.003.005.009.01.012l3.046 2.556c-.006.046-.021.084-.021.133a.95.95 0 0 0 .064.35c.014.035.038.06.057.092.034.058.067.117.115.162.007.006.01.017.018.023l2.96 2.485c-.002.031-.015.056-.015.09 0 .128.028.243.074.343.013.029.037.048.053.074a.77.77 0 0 0 .139.18c.003.003.005.009.01.012l2.97 2.492a.685.685 0 0 0-.023.102l-8.377-7.03c-.04-.033-.092-.05-.14-.074-.029-.015-.052-.036-.085-.047a.971.971 0 0 0-.32-.053c-.5 0-.801.3-.801.8 0 .128.028.242.074.343.019.04.05.068.074.103.036.053.069.108.116.149.004.004.006.011.011.016l3.033 2.544c0 .017-.007.029-.007.045 0 .131.023.246.062.348.014.036.04.06.059.092.034.06.068.119.117.164.006.006.009.016.016.021l2.978 2.498v.002c-.008.035-.016.069-.02.104l-8.388-7.04c-.055-.046-.12-.075-.186-.105-.018-.008-.033-.022-.052-.029a.825.825 0 0 0-.288-.055c-.124 0-.243.02-.351.055-.324.108-.549.37-.549.744 0 .125.025.238.07.336.018.038.051.064.075.098.037.054.07.113.12.156l3.046 2.555c-.001.02-.01.035-.01.056 0 .13.028.244.074.344.013.029.037.048.053.074a.77.77 0 0 0 .139.18c.003.003.005.009.01.012l3.048 2.558c-.003.02-.01.04-.012.06l-8.388-7.038c-.05-.041-.108-.066-.164-.094-.026-.013-.048-.033-.075-.043a.82.82 0 0 0-.285-.053c-.5 0-.8.3-.8.8 0 .132.023.248.064.35.011.03.033.049.047.075a.662.662 0 0 0 .127.178c.006.006.009.016.015.021l2.88 2.416c-.012.054-.034.1-.034.16 0 .126.025.238.07.336a.723.723 0 0 0 .194.252l.004.004 3.058 2.567c-.008.047-.025.092-.025.14 0 .13.028.243.074.344.017.036.045.061.067.094a.76.76 0 0 0 .054.074l-5.271-4.422c-.05-.04-.108-.066-.164-.094-.026-.013-.048-.033-.075-.043a.82.82 0 0 0-.285-.052c-.5 0-.8.3-.8.8 0 .133.023.25.064.352.01.027.03.046.043.07a.662.662 0 0 0 .133.184c.005.005.008.013.013.017l2.903 2.436c-.013.033-.016.067-.024.102l-8.308-6.971c-.05-.041-.108-.066-.164-.094-.026-.013-.048-.033-.075-.043a.82.82 0 0 0-.285-.053c-.4 0-.8.4-.8.8 0 .128.027.242.074.343.018.04.05.068.074.103.036.053.069.108.115.149.005.004.007.011.012.016l2.947 2.472c-.006.04-.021.077-.021.117a.7.7 0 0 0 .08.31c.018.039.05.067.074.102.04.058.077.113.129.16.01.01.016.025.027.034l3.018 2.533a.81.81 0 0 0-.008.047c-.002.014-.007.028-.008.043l-8.389-7.04c-.055-.046-.12-.075-.185-.105-.019-.008-.034-.022-.053-.029a.825.825 0 0 0-.287-.055c-.5 0-.898.4-.898.8a.8.8 0 0 0 .07.335c.028.062.076.108.12.158.025.03.041.068.071.094h.002l.002.004 3.045 2.555c-.001.02-.011.034-.011.054 0 .13.027.244.074.344.013.029.036.048.052.074a.77.77 0 0 0 .14.18c.003.003.005.009.009.012l2.947 2.472c-.006.04-.021.078-.021.118 0 .108.033.214.084.314.014.029.037.051.054.078.044.068.09.131.15.186.01.008.015.02.024.029l3 2.518c-.002.025-.014.05-.014.076 0 .007.004.012.004.02l-8.379-7.032c-.05-.042-.11-.067-.167-.096-.025-.012-.047-.031-.073-.04a.817.817 0 0 0-.285-.053c-.5 0-.898.3-.898.8 0 .125.025.238.07.336a.71.71 0 0 0 .146.194c.018.017.026.042.045.058l.002.002 3.067 2.574c-.01.046-.032.09-.032.135 0 .13.028.243.075.344.018.04.05.068.074.103.036.053.069.108.115.149.005.004.007.011.012.016l2.932 2.459c0 .01-.006.02-.006.03a.7.7 0 0 0 .08.311c.018.038.05.067.074.102.04.057.077.113.129.16.01.01.016.024.027.033l3.018 2.533c-.011.054-.03.106-.03.16 0 .008.004.015.004.022l-8.353-7.01-.026-.021c-.052-.044-.114-.073-.175-.102-.022-.01-.04-.025-.063-.033a.825.825 0 0 0-.287-.055c-.5 0-.898.4-.898.8a.8.8 0 0 0 .07.335c.028.062.076.108.12.158.025.03.041.068.071.094h.002l.002.004 3.041 2.55.002.003a.82.82 0 0 0 .065.3c.015.033.041.055.06.085.04.06.077.12.13.166.004.004.006.011.01.015l2.964 2.486c-.014.055-.029.11-.031.166v.006l-8.293-6.957-.051-.043c-.035-.029-.077-.044-.115-.066-.028-.016-.053-.037-.082-.049a.788.788 0 0 0-1.066.746c0 .13.027.243.073.344.019.04.05.068.075.103.036.053.068.108.115.149.005.004.007.011.011.016l2.85 2.39c-.005.034-.023.066-.023.1 0 .125.025.237.07.336v.002c.045.097.11.18.191.248l.002.004 3.067 2.574c-.01.045-.032.089-.032.135 0 .008.006.015.006.023l-8.355-7.012-.026-.021c-.052-.044-.114-.073-.175-.102-.022-.01-.04-.025-.063-.033a.825.825 0 0 0-.287-.055c-.5 0-.799.4-.799.8a.95.95 0 0 0 .065.349c.012.032.035.053.05.082.036.064.071.126.124.174.006.006.008.015.015.021l3.065 2.57a.83.83 0 0 0 .054.249c.015.032.042.054.06.084.04.06.077.12.13.166.005.004.007.011.011.015l2.891 2.424v.002a.675.675 0 0 0-.05.209l-8.264-6.934-.026-.021c-.052-.044-.114-.073-.175-.102-.022-.01-.04-.025-.063-.033a.825.825 0 0 0-.287-.055c-.4 0-.8.4-.8.8 0 .128.027.242.073.343.019.04.05.068.075.103.036.053.068.108.115.149.005.004.007.011.012.016l2.931 2.459c0 .01-.006.02-.006.03 0 .132.024.247.063.348.013.035.037.06.054.09a.65.65 0 0 0 .122.166c.006.006.008.016.015.022l3.065 2.57c-.005.035-.02.068-.02.104a.7.7 0 0 0 .084.314c.014.029.037.051.055.078.044.068.09.131.15.186.01.008.014.02.024.029l2.84 2.383c-.012.033-.018.067-.024.101l-8.34-6.998c-.038-.032-.084-.05-.127-.076-.03-.017-.055-.039-.086-.053a.685.685 0 0 0-.275-.064c-.4 0-.8.4-.8.8a.81.81 0 0 0 .073.345c.015.032.042.054.06.084.04.06.077.12.13.166.005.004.007.011.012.015l2.962 2.486c-.017.068-.037.134-.037.204 0 .109.026.215.069.316.013.032.035.056.052.086.038.066.08.128.137.182.011.01.015.027.027.037l3.022 2.535v.002l-8.42-7.065c-.037-.031-.082-.05-.123-.074-.03-.018-.058-.04-.09-.055a.685.685 0 0 0-.273-.064c-.5 0-.801.4-.801.8a.81.81 0 0 0 .074.345c.015.032.042.054.06.084.04.06.077.12.13.166.004.004.006.011.011.015l2.971 2.492c-.02.066-.047.13-.047.198a.7.7 0 0 0 .084.314c.014.029.037.051.055.078.044.068.09.131.15.186.01.008.014.02.024.029l2.916 2.447c-.01.05-.028.097-.028.147 0 .109.026.215.069.316.013.032.035.056.052.086.038.066.08.127.137.18.011.01.015.027.027.037l3.022 2.535c-.001.015-.008.03-.008.045 0 .008.004.014.004.021l-8.353-7.01-.026-.02c-.045-.039-.1-.062-.152-.089-.03-.015-.055-.037-.086-.048a.82.82 0 0 0-.285-.053c-.5 0-.801.399-.801.799a.7.7 0 0 0 .084.314c.014.029.037.051.055.078.043.068.09.131.15.186.01.008.014.02.023.029l6.282 5.272a.82.82 0 0 0-.194.521.95.95 0 0 0 .065.35c.012.031.035.053.05.082.036.063.071.126.124.173.006.006.008.016.015.022l9.947 8.346c-.278.132-.502.428-.502.726a.7.7 0 0 0 .084.315c.015.028.037.05.055.078.044.067.09.13.15.185.01.009.014.022.024.03l2.932 2.46a.817.817 0 0 0-.043.233c0 .129.028.243.074.344.018.04.05.068.074.103.036.053.069.108.115.149.005.004.007.011.012.015l3.031 2.543c0 .016-.008.03-.008.045 0 .133.024.249.065.352.011.029.033.048.047.074a.662.662 0 0 0 .127.178c.006.006.009.016.015.021l2.903 2.436c-.017.042-.023.085-.032.129l-8.337-6.996c-.038-.032-.082-.05-.123-.075-.031-.018-.058-.04-.09-.054a.685.685 0 0 0-.274-.065c-.4 0-.8.401-.8.801 0 .129.027.243.074.344.018.04.05.068.074.103.036.053.069.108.115.149.005.004.007.011.012.015l2.947 2.473c-.006.039-.021.076-.021.115 0 .13.028.243.074.344.018.04.05.068.074.103.036.053.069.108.115.149.005.004.007.011.012.016l3.049 2.556v.002c-.007.044-.026.086-.026.131 0 .133.024.249.065.352.011.028.033.048.047.074a.662.662 0 0 0 .127.178c.006.005.009.015.015.021l2.883 2.42a.658.658 0 0 0-.01.045l-8.337-6.996c-.04-.033-.087-.053-.131-.078-.029-.017-.053-.038-.082-.051a.686.686 0 0 0-.276-.065c-.4 0-.8.4-.8.8 0 .128.027.242.074.343.018.04.05.068.074.103.036.053.069.108.115.149.005.004.007.011.012.016l2.945 2.47c-.004.041-.02.075-.02.12 0 .128.029.243.075.343.013.029.036.048.053.074.04.066.083.13.14.18.004.003.005.009.008.012l3.049 2.558c-.007.044-.026.086-.026.131 0 .11.028.217.07.319.013.03.033.053.05.082a.77.77 0 0 0 .138.183c.011.01.016.026.028.035l2.853 2.395c-.01.042-.024.082-.027.129l-8.287-6.953c-.05-.041-.108-.066-.164-.094-.026-.013-.048-.033-.075-.043a.82.82 0 0 0-.285-.053c-.4 0-.8.401-.8.801 0 .129.027.243.074.344.018.04.05.068.074.103.036.053.069.108.115.149.005.004.007.011.012.015l2.947 2.473c-.006.039-.021.076-.021.115 0 .11.032.218.084.319.012.024.034.042.048.066a.91.91 0 0 0 .157.193c.01.009.014.022.023.03l2.998 2.515c-.002.028-.011.05-.011.078 0 .133.023.25.064.352.011.029.033.048.047.074a.66.66 0 0 0 .127.178c.006.006.009.016.015.021l2.88 2.416c-.01.044-.026.083-.028.131l-8.316-6.978c-.04-.033-.087-.053-.131-.078-.029-.017-.053-.038-.082-.051a.686.686 0 0 0-.276-.065c-.4 0-.8.4-.8.8 0 .108.032.217.083.318.013.024.034.042.05.066a.91.91 0 0 0 .156.193c.009.009.013.022.023.03l2.916 2.447c-.01.05-.027.096-.027.146 0 .13.028.244.074.344.013.029.036.048.053.074.04.066.083.13.14.18.004.003.005.009.008.012l3.031 2.543c0 .017-.008.03-.008.047 0 .132.024.248.065.351.011.029.033.048.047.074a.662.662 0 0 0 .127.178c.006.006.009.016.015.022l2.897 2.431a.794.794 0 0 0-.027.131l-8.336-6.994c-.038-.031-.082-.05-.123-.074-.031-.019-.058-.04-.09-.055a.685.685 0 0 0-.274-.064c-.4 0-.8.4-.8.8 0 .13.027.244.074.344.013.029.036.048.052.074a.77.77 0 0 0 .14.18c.003.003.005.009.009.012l2.947 2.472c-.006.04-.021.078-.021.118 0 .129.028.243.074.343.018.04.05.068.074.104.036.052.069.107.115.148.005.005.007.012.012.016l3.045 2.555c-.006.046-.022.084-.022.134 0 .133.024.25.065.352.011.029.033.048.047.074.036.066.073.13.127.178.006.006.009.016.015.021l34.127 28.635zm-1.648.738a60 60 0 0 0 1.605-.718l-39.548-33.186c-.04-.033-.087-.052-.131-.078-.029-.017-.053-.038-.082-.05a.686.686 0 0 0-.276-.065.821.821 0 0 0-.55.213.777.777 0 0 0-.25.586c0 .129.027.243.074.343.014.032.04.054.058.082.04.062.078.124.131.17.005.005.007.012.012.016l38.957 32.687z" clip-rule="evenodd" class="svgShape color1d7dc9-2 selectable"/><path fill="#fff" d="M59.563 956.062c-.5 0-.8.3-.8.8s.3.8.8.8.8-.4.8-.8c0-.5-.4-.8-.8-.8zm3.2 0c-.5 0-.8.3-.8.8s.4.8.8.8.8-.4.8-.8c0-.5-.4-.8-.8-.8zm-3.2 3.2c-.5 0-.8.4-.8.8s.3.8.8.8.8-.4.8-.8-.4-.8-.8-.8zm3.2 0c-.5 0-.8.4-.8.8s.4.8.8.8.8-.4.8-.8-.4-.8-.8-.8zm3.2 0c-.4 0-.8.4-.8.8s.4.8.8.8c.5 0 .9-.4.9-.8s-.4-.8-.9-.8zm-9.7 3.2c-.5 0-.8.4-.8.8 0 .5.4.8.8.8.5 0 .8-.4.8-.8s-.3-.8-.8-.8zm3.3 0c-.5 0-.8.4-.8.8 0 .5.3.8.8.8s.8-.4.8-.8-.4-.8-.8-.8zm3.2 0c-.5 0-.8.4-.8.8 0 .5.4.8.8.8s.8-.4.8-.8-.4-.8-.8-.8zm3.2 0c-.4 0-.8.4-.8.8 0 .5.4.8.8.8.5 0 .9-.4.9-.8s-.4-.8-.9-.8zm3.3 0c-.5 0-.8.4-.8.8 0 .5.4.8.8.8.5 0 .8-.4.8-.8s-.4-.8-.8-.8zm3.2 0c-.5 0-.8.4-.8.8 0 .5.3.8.8.8s.8-.4.8-.8-.4-.8-.8-.8zm3.2 0c-.5 0-.8.4-.8.8 0 .5.4.8.8.8s.8-.4.8-.8-.4-.8-.8-.8zm-35.5 3.3c-.5 0-.9.4-.9.8 0 .5.4.8.9.8.4 0 .8-.3.8-.8s-.4-.8-.8-.8zm3.2 0c-.4 0-.8.4-.8.8 0 .5.4.8.8.8.5 0 .8-.3.8-.8s-.4-.8-.8-.8zm6.5 0c-.5 0-.8.3-.8.8s.3.8.8.8c.4 0 .8-.3.8-.8s-.4-.8-.8-.8zm3.2 0c-.5 0-.9.3-.9.8s.4.8.9.8c.4 0 .8-.3.8-.8s-.4-.8-.8-.8zm3.2 0c-.5 0-.8.3-.8.8s.4.8.8.8c.5 0 .8-.3.8-.8s-.3-.8-.8-.8zm3.3 0c-.5 0-.8.3-.8.8s.3.8.8.8.8-.3.8-.8-.4-.8-.8-.8zm3.2 0c-.5 0-.8.3-.8.8s.4.8.8.8.8-.3.8-.8-.4-.8-.8-.8zm3.2 0c-.4 0-.8.3-.8.8s.4.8.8.8c.5 0 .9-.3.9-.8s-.4-.8-.9-.8zm3.3 0c-.5 0-.8.3-.8.8s.4.8.8.8c.5 0 .8-.3.8-.8s-.4-.8-.8-.8zm3.2 0c-.5 0-.8.3-.8.8s.3.8.8.8.8-.3.8-.8-.4-.8-.8-.8zm3.2 0c-.5 0-.8.3-.8.8s.4.8.8.8.8-.3.8-.8-.4-.8-.8-.8zm3.3 0c-.4 0-.8.3-.8.8s.4.8.8.8c.5 0 .8-.3.8-.8s-.4-.8-.8-.8zm-32.4 3.2c-.5 0-.8.4-.8.8s.4.8.8.8.8-.3.8-.8-.3-.8-.8-.8zm38.8 0c-.5 0-.8.3-.8.8s.3.8.8.8.8-.3.8-.8-.3-.8-.8-.8zm3.2 0c-.5 0-.8.3-.8.8s.4.8.8.8.8-.3.8-.8-.3-.8-.8-.8zm-48.4 0c-.5 0-.9.3-.9.8s.4.8.9.8c.4 0 .8-.3.8-.8s-.4-.8-.8-.8zm3.2 0c-.4 0-.8.3-.8.8s.4.8.8.8c.5 0 .8-.3.8-.8s-.4-.8-.8-.8zm6.5 0c-.5 0-.8.3-.8.8s.3.8.8.8c.4 0 .8-.3.8-.8s-.4-.8-.8-.8zm3.2 0c-.5 0-.9.3-.9.8s.4.8.9.8c.4 0 .8-.3.8-.8s-.4-.8-.8-.8zm3.2 0c-.5 0-.8.3-.8.8s.4.8.8.8c.5 0 .8-.3.8-.8s-.3-.8-.8-.8zm3.3 0c-.5 0-.8.3-.8.8s.3.8.8.8.8-.3.8-.8-.4-.8-.8-.8zm3.2 0c-.5 0-.8.3-.8.8s.4.8.8.8.8-.3.8-.8-.4-.8-.8-.8zm3.2 0c-.4 0-.8.3-.8.8s.4.8.8.8c.5 0 .9-.3.9-.8s-.4-.8-.9-.8zm3.3 0c-.5 0-.8.3-.8.8s.4.8.8.8c.5 0 .8-.3.8-.8s-.4-.8-.8-.8zm3.2 0c-.5 0-.8.3-.8.8s.3.8.8.8.8-.3.8-.8-.4-.8-.8-.8zm3.2 0c-.5 0-.8.3-.8.8s.4.8.8.8.8-.3.8-.8-.4-.8-.8-.8zm3.3 0c-.4 0-.8.3-.8.8s.4.8.8.8c.5 0 .8-.3.8-.8s-.4-.8-.8-.8zm3.2 0c-.5 0-.8.3-.8.8s.3.8.8.8.8-.3.8-.8-.4-.8-.8-.8zm-35.6 3.2c-.5 0-.8.4-.8.8s.4.8.8.8.8-.4.8-.8-.3-.8-.8-.8zm38.8 0c-.5 0-.8.4-.8.8s.3.8.8.8.8-.4.8-.8-.3-.8-.8-.8zm3.2 0c-.5 0-.8.4-.8.8s.4.8.8.8.8-.4.8-.8-.3-.8-.8-.8zm3.3 0c-.4 0-.8.4-.8.8s.4.8.8.8c.5 0 .9-.4.9-.8-.1-.4-.5-.8-.9-.8zm-61.4.1c-.4 0-.8.4-.8.8 0 .5.4.8.8.8.5 0 .8-.4.8-.8 0-.5-.4-.8-.8-.8zm3.2 0c-.5 0-.8.4-.8.8 0 .5.3.8.8.8s.8-.4.8-.8c0-.5-.4-.8-.8-.8zm3.3 0c-.5 0-.8.4-.8.8 0 .5.4.8.8.8.5 0 .8-.4.8-.8-.1-.5-.4-.8-.8-.8zm3.2 0c-.5 0-.9.4-.9.8 0 .5.4.8.9.8.4 0 .8-.4.8-.8 0-.5-.4-.8-.8-.8zm3.2 0c-.4 0-.8.4-.8.8 0 .5.4.8.8.8.5 0 .8-.4.8-.8 0-.5-.4-.8-.8-.8zm6.5 0c-.5 0-.8.4-.8.8 0 .5.3.8.8.8.4 0 .8-.4.8-.8 0-.5-.4-.8-.8-.8zm3.2 0c-.5 0-.9.4-.9.8 0 .5.4.8.9.8.4 0 .8-.4.8-.8 0-.5-.4-.8-.8-.8zm3.2 0c-.5 0-.8.4-.8.8 0 .5.4.8.8.8.5 0 .8-.4.8-.8 0-.5-.3-.8-.8-.8zm3.3 0c-.5 0-.8.4-.8.8 0 .5.3.8.8.8s.8-.4.8-.8c0-.5-.4-.8-.8-.8zm3.2 0c-.5 0-.8.4-.8.8 0 .5.4.8.8.8s.8-.4.8-.8c0-.5-.4-.8-.8-.8zm3.2 0c-.4 0-.8.4-.8.8 0 .5.4.8.8.8.5 0 .9-.4.9-.8 0-.5-.4-.8-.9-.8zm3.3 0c-.5 0-.8.4-.8.8 0 .5.4.8.8.8.5 0 .8-.4.8-.8 0-.5-.4-.8-.8-.8zm3.2 0c-.5 0-.8.4-.8.8 0 .5.3.8.8.8s.8-.4.8-.8c0-.5-.4-.8-.8-.8zm3.2 0c-.5 0-.8.4-.8.8 0 .5.4.8.8.8s.8-.4.8-.8c0-.5-.4-.8-.8-.8zm3.3 0c-.4 0-.8.4-.8.8 0 .5.4.8.8.8.5 0 .8-.4.8-.8 0-.5-.4-.8-.8-.8zm3.2 0c-.5 0-.8.4-.8.8 0 .5.3.8.8.8s.8-.4.8-.8c0-.5-.4-.8-.8-.8zm-35.6 3.1c-.5 0-.8.4-.8.8s.4.8.8.8.8-.4.8-.8-.3-.8-.8-.8zm38.8 0c-.5 0-.8.4-.8.8 0 .5.3.8.8.8s.8-.4.8-.8-.3-.8-.8-.8zm3.2 0c-.5 0-.8.4-.8.8 0 .5.4.8.8.8s.8-.4.8-.8-.3-.8-.8-.8zm-61.3 0c-.5 0-.8.4-.8.8 0 .5.4.8.8.8s.8-.4.8-.8-.4-.8-.8-.8zm3.2 0c-.4 0-.8.4-.8.8 0 .5.4.8.8.8.5 0 .8-.4.8-.8s-.4-.8-.8-.8zm3.2 0c-.5 0-.8.4-.8.8 0 .5.3.8.8.8s.8-.4.8-.8-.4-.8-.8-.8zm3.3 0c-.5 0-.8.4-.8.8 0 .5.4.8.8.8.5 0 .8-.4.8-.8-.1-.4-.4-.8-.8-.8zm3.2 0c-.5 0-.9.4-.9.8 0 .5.4.8.9.8.4 0 .8-.4.8-.8s-.4-.8-.8-.8zm3.2 0c-.4 0-.8.4-.8.8 0 .5.4.8.8.8.5 0 .8-.4.8-.8s-.4-.8-.8-.8zm6.5 0c-.5 0-.8.4-.8.8 0 .5.3.8.8.8.4 0 .8-.4.8-.8s-.4-.8-.8-.8zm3.2 0c-.5 0-.9.4-.9.8 0 .5.4.8.9.8.4 0 .8-.4.8-.8s-.4-.8-.8-.8zm3.2 0c-.5 0-.8.4-.8.8 0 .5.4.8.8.8.5 0 .8-.4.8-.8s-.3-.8-.8-.8zm3.3 0c-.5 0-.8.4-.8.8 0 .5.3.8.8.8s.8-.4.8-.8-.4-.8-.8-.8zm3.2 0c-.5 0-.8.4-.8.8 0 .5.4.8.8.8s.8-.4.8-.8-.4-.8-.8-.8zm3.2 0c-.4 0-.8.4-.8.8 0 .5.4.8.8.8.5 0 .9-.4.9-.8s-.4-.8-.9-.8zm3.3 0c-.5 0-.8.4-.8.8 0 .5.4.8.8.8.5 0 .8-.4.8-.8s-.4-.8-.8-.8zm3.2 0c-.5 0-.8.4-.8.8 0 .5.3.8.8.8s.8-.4.8-.8-.4-.8-.8-.8zm3.2 0c-.5 0-.8.4-.8.8 0 .5.4.8.8.8s.8-.4.8-.8-.4-.8-.8-.8zm3.3 0c-.4 0-.8.4-.8.8 0 .5.4.8.8.8.5 0 .8-.4.8-.8s-.4-.8-.8-.8zm3.2 0c-.5 0-.8.4-.8.8 0 .5.3.8.8.8s.8-.4.8-.8-.4-.8-.8-.8zm-35.6 3.3c-.5 0-.8.4-.8.8s.4.8.8.8.8-.3.8-.8-.3-.8-.8-.8zm-19.3 0c-.5 0-.8.4-.8.8s.4.8.8.8.8-.3.8-.8-.4-.8-.8-.8zm3.2 0c-.4 0-.8.4-.8.8s.4.8.8.8c.5 0 .8-.3.8-.8s-.4-.8-.8-.8zm3.2 0c-.5 0-.8.4-.8.8s.3.8.8.8.8-.3.8-.8-.4-.8-.8-.8zm3.3 0c-.5 0-.8.4-.8.8s.4.8.8.8c.5 0 .8-.3.8-.8s-.4-.8-.8-.8zm3.2 0c-.5 0-.9.4-.9.8s.4.8.9.8c.4 0 .8-.3.8-.8s-.4-.8-.8-.8zm3.2 0c-.4 0-.8.4-.8.8s.4.8.8.8c.5 0 .8-.3.8-.8s-.4-.8-.8-.8zm6.5 0c-.5 0-.8.4-.8.8s.3.8.8.8c.4 0 .8-.3.8-.8s-.4-.8-.8-.8zm3.2 0c-.5 0-.9.4-.9.8s.4.8.9.8c.4 0 .8-.3.8-.8s-.4-.8-.8-.8zm3.2 0c-.5 0-.8.4-.8.8s.4.8.8.8c.5 0 .8-.3.8-.8s-.3-.8-.8-.8zm3.3 0c-.5 0-.8.4-.8.8s.3.8.8.8.8-.3.8-.8-.4-.8-.8-.8zm3.2 0c-.5 0-.8.4-.8.8s.4.8.8.8.8-.3.8-.8-.4-.8-.8-.8zm3.2 0c-.4 0-.8.4-.8.8s.4.8.8.8c.5 0 .9-.3.9-.8s-.4-.8-.9-.8zm3.3 0c-.5 0-.8.4-.8.8s.4.8.8.8c.5 0 .8-.3.8-.8s-.4-.8-.8-.8zm3.2 0c-.5 0-.8.4-.8.8s.3.8.8.8.8-.3.8-.8-.4-.8-.8-.8zm3.2 0c-.5 0-.8.4-.8.8s.4.8.8.8.8-.3.8-.8-.4-.8-.8-.8zm3.3 0c-.4 0-.8.4-.8.8s.4.8.8.8c.5 0 .8-.3.8-.8s-.4-.8-.8-.8zm3.2 0c-.5 0-.8.4-.8.8s.3.8.8.8.8-.3.8-.8-.4-.8-.8-.8zm3.2 0c-.5 0-.8.3-.8.8s.3.8.8.8.8-.3.8-.8-.3-.8-.8-.8zm3.2 0c-.5 0-.8.3-.8.8s.4.8.8.8.8-.3.8-.8-.3-.8-.8-.8zm-42 3.2c-.5 0-.8.4-.8.8s.4.8.8.8.8-.3.8-.8-.3-.8-.8-.8zm-12.9 0c-.5 0-.8.4-.8.8s.3.8.8.8.8-.4.8-.8-.4-.8-.8-.8zm3.3 0c-.5 0-.8.4-.8.8s.4.8.8.8c.5 0 .8-.4.8-.8-.1-.4-.4-.8-.8-.8zm3.2 0c-.5 0-.9.4-.9.8s.4.8.9.8c.4 0 .8-.4.8-.8s-.4-.8-.8-.8zm3.2 0c-.4 0-.8.4-.8.8s.4.8.8.8c.5 0 .8-.4.8-.8s-.4-.8-.8-.8zm42 0c-.5 0-.8.3-.8.8s.3.8.8.8.8-.3.8-.8-.3-.8-.8-.8zm3.2 0c-.5 0-.8.3-.8.8s.4.8.8.8.8-.3.8-.8-.3-.8-.8-.8zm-38.7 0c-.5 0-.8.3-.8.8 0 .4.3.8.8.8.4 0 .8-.4.8-.8s-.4-.8-.8-.8zm3.2 0c-.5 0-.9.3-.9.8 0 .4.4.8.9.8.4 0 .8-.4.8-.8s-.4-.8-.8-.8zm3.2 0c-.5 0-.8.3-.8.8 0 .4.4.8.8.8.5 0 .8-.4.8-.8s-.3-.8-.8-.8zm3.3 0c-.5 0-.8.3-.8.8 0 .4.3.8.8.8s.8-.4.8-.8-.4-.8-.8-.8zm3.2 0c-.5 0-.8.3-.8.8 0 .4.4.8.8.8s.8-.4.8-.8-.4-.8-.8-.8zm3.2 0c-.4 0-.8.3-.8.8 0 .4.4.8.8.8.5 0 .9-.4.9-.8s-.4-.8-.9-.8zm3.3 0c-.5 0-.8.3-.8.8 0 .4.4.8.8.8.5 0 .8-.4.8-.8s-.4-.8-.8-.8zm3.2 0c-.5 0-.8.3-.8.8 0 .4.3.8.8.8s.8-.4.8-.8-.4-.8-.8-.8zm3.2 0c-.5 0-.8.3-.8.8 0 .4.4.8.8.8s.8-.4.8-.8-.4-.8-.8-.8zm3.3 0c-.4 0-.8.3-.8.8 0 .4.4.8.8.8.5 0 .8-.4.8-.8s-.4-.8-.8-.8zm3.2 0c-.5 0-.8.3-.8.8 0 .4.3.8.8.8s.8-.4.8-.8-.4-.8-.8-.8zm-35.6 3.2c-.5 0-.8.4-.8.8s.4.8.8.8.8-.4.8-.8-.3-.8-.8-.8zm-12.9 0c-.5 0-.8.4-.8.8 0 .5.3.8.8.8s.8-.4.8-.8-.4-.8-.8-.8zm3.3 0c-.5 0-.8.4-.8.8 0 .5.4.8.8.8.5 0 .8-.4.8-.8-.1-.4-.4-.8-.8-.8zm3.2 0c-.5 0-.9.4-.9.8 0 .5.4.8.9.8.4 0 .8-.4.8-.8s-.4-.8-.8-.8zm3.2 0c-.4 0-.8.4-.8.8 0 .5.4.8.8.8.5 0 .8-.4.8-.8s-.4-.8-.8-.8zm42 0c-.5 0-.8.4-.8.8s.3.8.8.8.8-.4.8-.8-.3-.8-.8-.8zm-35.5.1c-.5 0-.8.4-.8.8 0 .5.3.8.8.8.4 0 .8-.4.8-.8 0-.5-.4-.8-.8-.8zm3.2 0c-.5 0-.9.4-.9.8 0 .5.4.8.9.8.4 0 .8-.4.8-.8 0-.5-.4-.8-.8-.8zm3.2 0c-.5 0-.8.4-.8.8 0 .5.4.8.8.8.5 0 .8-.4.8-.8 0-.5-.3-.8-.8-.8zm3.3 0c-.5 0-.8.4-.8.8 0 .5.3.8.8.8s.8-.4.8-.8c0-.5-.4-.8-.8-.8zm3.2 0c-.5 0-.8.4-.8.8 0 .5.4.8.8.8s.8-.4.8-.8c0-.5-.4-.8-.8-.8zm3.2 0c-.4 0-.8.4-.8.8 0 .5.4.8.8.8.5 0 .9-.4.9-.8 0-.5-.4-.8-.9-.8zm3.3 0c-.5 0-.8.4-.8.8 0 .5.4.8.8.8.5 0 .8-.4.8-.8 0-.5-.4-.8-.8-.8zm3.2 0c-.5 0-.8.4-.8.8 0 .5.3.8.8.8s.8-.4.8-.8c0-.5-.4-.8-.8-.8zm3.2 0c-.5 0-.8.4-.8.8 0 .5.4.8.8.8s.8-.4.8-.8c0-.5-.4-.8-.8-.8zm3.3 0c-.4 0-.8.4-.8.8 0 .5.4.8.8.8.5 0 .8-.4.8-.8 0-.5-.4-.8-.8-.8zm3.2 0c-.5 0-.8.4-.8.8 0 .5.3.8.8.8s.8-.4.8-.8c0-.5-.4-.8-.8-.8zm-35.6 3.1c-.5 0-.8.4-.8.8 0 .5.4.8.8.8s.8-.4.8-.8-.3-.8-.8-.8zm38.8 0c-.5 0-.8.4-.8.8 0 .5.3.8.8.8s.8-.4.8-.8-.3-.8-.8-.8zm-45.2.1c-.5 0-.9.4-.9.8 0 .5.4.8.9.8.4 0 .8-.3.8-.8s-.4-.8-.8-.8zm3.2 0c-.4 0-.8.4-.8.8 0 .5.4.8.8.8.5 0 .8-.3.8-.8s-.4-.8-.8-.8zm6.5 0c-.5 0-.8.4-.8.8 0 .5.3.8.8.8.4 0 .8-.4.8-.8 0-.5-.4-.8-.8-.8zm3.2 0c-.5 0-.9.4-.9.8 0 .5.4.8.9.8.4 0 .8-.4.8-.8 0-.5-.4-.8-.8-.8zm3.2 0c-.5 0-.8.4-.8.8 0 .5.4.8.8.8.5 0 .8-.4.8-.8 0-.5-.3-.8-.8-.8zm3.3 0c-.5 0-.8.4-.8.8 0 .5.3.8.8.8s.8-.4.8-.8c0-.5-.4-.8-.8-.8zm3.2 0c-.5 0-.8.4-.8.8 0 .5.4.8.8.8s.8-.4.8-.8c0-.5-.4-.8-.8-.8zm3.2 0c-.4 0-.8.4-.8.8 0 .5.4.8.8.8.5 0 .9-.4.9-.8 0-.5-.4-.8-.9-.8zm3.3 0c-.5 0-.8.4-.8.8 0 .5.4.8.8.8.5 0 .8-.4.8-.8 0-.5-.4-.8-.8-.8zm3.2 0c-.5 0-.8.4-.8.8 0 .5.3.8.8.8s.8-.4.8-.8c0-.5-.4-.8-.8-.8zm3.2 0c-.5 0-.8.4-.8.8 0 .5.4.8.8.8s.8-.4.8-.8c0-.5-.4-.8-.8-.8zm3.3 0c-.4 0-.8.4-.8.8 0 .5.4.8.8.8.5 0 .8-.4.8-.8 0-.5-.4-.8-.8-.8zm3.2 0c-.5 0-.8.4-.8.8 0 .5.3.8.8.8s.8-.4.8-.8c0-.5-.4-.8-.8-.8zm-35.6 3.2c-.5 0-.8.3-.8.8s.4.8.8.8.8-.3.8-.8-.3-.8-.8-.8zm38.8 0c-.5 0-.8.3-.8.8s.3.8.8.8.8-.4.8-.8-.3-.8-.8-.8zm-42 0c-.4 0-.8.3-.8.8s.4.8.8.8c.5 0 .8-.4.8-.8s-.4-.8-.8-.8zm6.5 0c-.5 0-.8.3-.8.8s.3.8.8.8c.4 0 .8-.4.8-.8s-.4-.8-.8-.8zm3.2 0c-.5 0-.9.3-.9.8s.4.8.9.8c.4 0 .8-.4.8-.8s-.4-.8-.8-.8zm3.2 0c-.5 0-.8.3-.8.8s.4.8.8.8c.5 0 .8-.4.8-.8s-.3-.8-.8-.8zm3.3 0c-.5 0-.8.3-.8.8s.3.8.8.8.8-.4.8-.8-.4-.8-.8-.8zm3.2 0c-.5 0-.8.3-.8.8s.4.8.8.8.8-.4.8-.8-.4-.8-.8-.8zm3.2 0c-.4 0-.8.3-.8.8s.4.8.8.8c.5 0 .9-.4.9-.8s-.4-.8-.9-.8zm3.3 0c-.5 0-.8.3-.8.8s.4.8.8.8c.5 0 .8-.4.8-.8s-.4-.8-.8-.8zm3.2 0c-.5 0-.8.3-.8.8s.3.8.8.8.8-.4.8-.8-.4-.8-.8-.8zm3.2 0c-.5 0-.8.3-.8.8s.4.8.8.8.8-.4.8-.8-.4-.8-.8-.8zm3.3 0c-.4 0-.8.3-.8.8s.4.8.8.8c.5 0 .8-.4.8-.8s-.4-.8-.8-.8zm3.2 0c-.5 0-.8.3-.8.8s.3.8.8.8.8-.4.8-.8-.4-.8-.8-.8zm-35.6 3.2c-.5 0-.8.3-.8.8s.4.8.8.8.8-.4.8-.8-.3-.8-.8-.8zm38.8 0c-.5 0-.8.4-.8.8s.3.8.8.8.8-.4.8-.8-.3-.8-.8-.8zm-42 0c-.4 0-.8.4-.8.8s.4.8.8.8c.5 0 .8-.4.8-.8s-.4-.8-.8-.8zm6.5 0c-.5 0-.8.4-.8.8s.3.8.8.8c.4 0 .8-.4.8-.8s-.4-.8-.8-.8zm3.2 0c-.5 0-.9.4-.9.8s.4.8.9.8c.4 0 .8-.4.8-.8s-.4-.8-.8-.8zm3.2 0c-.5 0-.8.4-.8.8s.4.8.8.8c.5 0 .8-.4.8-.8s-.3-.8-.8-.8zm3.3 0c-.5 0-.8.4-.8.8s.3.8.8.8.8-.4.8-.8-.4-.8-.8-.8zm3.2 0c-.5 0-.8.4-.8.8s.4.8.8.8.8-.4.8-.8-.4-.8-.8-.8zm3.2 0c-.4 0-.8.4-.8.8s.4.8.8.8c.5 0 .9-.4.9-.8s-.4-.8-.9-.8zm3.3 0c-.5 0-.8.4-.8.8s.4.8.8.8c.5 0 .8-.4.8-.8s-.4-.8-.8-.8zm3.2 0c-.5 0-.8.4-.8.8s.3.8.8.8.8-.4.8-.8-.4-.8-.8-.8zm3.2 0c-.5 0-.8.4-.8.8s.4.8.8.8.8-.4.8-.8-.4-.8-.8-.8zm3.3 0c-.4 0-.8.4-.8.8s.4.8.8.8c.5 0 .8-.4.8-.8s-.4-.8-.8-.8zm3.2 0c-.5 0-.8.4-.8.8s.3.8.8.8.8-.4.8-.8-.4-.8-.8-.8zm-35.6 3.3c-.5 0-.8.4-.8.8 0 .5.4.8.8.8s.8-.4.8-.8c0-.5-.3-.8-.8-.8zm38.8 0c-.5 0-.8.4-.8.8 0 .5.3.8.8.8s.8-.4.8-.8-.3-.8-.8-.8zm-42 0c-.4 0-.8.4-.8.8 0 .5.4.8.8.8.5 0 .8-.4.8-.8s-.4-.8-.8-.8zm6.5 0c-.5 0-.8.4-.8.8 0 .5.3.8.8.8.4 0 .8-.3.8-.8 0-.4-.4-.8-.8-.8zm3.2 0c-.5 0-.9.4-.9.8 0 .5.4.8.9.8.4 0 .8-.3.8-.8 0-.4-.4-.8-.8-.8zm3.2 0c-.5 0-.8.4-.8.8 0 .5.4.8.8.8.5 0 .8-.3.8-.8 0-.4-.3-.8-.8-.8zm3.3 0c-.5 0-.8.4-.8.8 0 .5.3.8.8.8s.8-.3.8-.8c0-.4-.4-.8-.8-.8zm3.2 0c-.5 0-.8.4-.8.8 0 .5.4.8.8.8s.8-.3.8-.8c0-.4-.4-.8-.8-.8zm3.2 0c-.4 0-.8.4-.8.8 0 .5.4.8.8.8.5 0 .9-.3.9-.8 0-.4-.4-.8-.9-.8zm3.3 0c-.5 0-.8.4-.8.8 0 .5.4.8.8.8.5 0 .8-.3.8-.8 0-.4-.4-.8-.8-.8zm3.2 0c-.5 0-.8.4-.8.8 0 .5.3.8.8.8s.8-.3.8-.8c0-.4-.4-.8-.8-.8zm3.2 0c-.5 0-.8.4-.8.8 0 .5.4.8.8.8s.8-.3.8-.8c0-.4-.4-.8-.8-.8zm3.3 0c-.4 0-.8.4-.8.8 0 .5.4.8.8.8.5 0 .8-.3.8-.8 0-.4-.4-.8-.8-.8zm3.2 0c-.5 0-.8.4-.8.8 0 .5.3.8.8.8s.8-.3.8-.8c0-.4-.4-.8-.8-.8zm-35.6 3.2c-.5 0-.8.4-.8.8 0 .5.4.8.8.8s.8-.4.8-.8c0-.5-.3-.8-.8-.8zm38.8 0c-.5 0-.8.4-.8.8 0 .5.3.8.8.8s.8-.3.8-.8c0-.4-.3-.8-.8-.8zm-42 0c-.4 0-.8.4-.8.8 0 .5.4.8.8.8.5 0 .8-.4.8-.8s-.4-.8-.8-.8zm6.5 0c-.5 0-.8.4-.8.8 0 .5.3.8.8.8.4 0 .8-.3.8-.8 0-.4-.4-.8-.8-.8zm3.2 0c-.5 0-.9.4-.9.8 0 .5.4.8.9.8.4 0 .8-.3.8-.8 0-.4-.4-.8-.8-.8zm3.2 0c-.5 0-.8.4-.8.8 0 .5.4.8.8.8.5 0 .8-.3.8-.8 0-.4-.3-.8-.8-.8zm3.3 0c-.5 0-.8.4-.8.8 0 .5.3.8.8.8s.8-.3.8-.8c0-.4-.4-.8-.8-.8zm3.2 0c-.5 0-.8.4-.8.8 0 .5.4.8.8.8s.8-.3.8-.8c0-.4-.4-.8-.8-.8zm3.2 0c-.4 0-.8.4-.8.8 0 .5.4.8.8.8.5 0 .9-.3.9-.8 0-.4-.4-.8-.9-.8zm3.3 0c-.5 0-.8.4-.8.8 0 .5.4.8.8.8.5 0 .8-.3.8-.8 0-.4-.4-.8-.8-.8zm3.2 0c-.5 0-.8.4-.8.8 0 .5.3.8.8.8s.8-.3.8-.8c0-.4-.4-.8-.8-.8zm3.2 0c-.5 0-.8.4-.8.8 0 .5.4.8.8.8s.8-.3.8-.8c0-.4-.4-.8-.8-.8zm3.3 0c-.4 0-.8.4-.8.8 0 .5.4.8.8.8.5 0 .8-.3.8-.8 0-.4-.4-.8-.8-.8zm3.2 0c-.5 0-.8.4-.8.8 0 .5.3.8.8.8s.8-.3.8-.8c0-.4-.4-.8-.8-.8zm-35.6 3.2c-.5 0-.8.3-.8.8s.4.8.8.8.8-.4.8-.8-.3-.8-.8-.8zm-3.2.1c-.4 0-.8.4-.8.8 0 .5.4.8.8.8.5 0 .8-.3.8-.8s-.4-.8-.8-.8zm6.5 0c-.5 0-.8.4-.8.8 0 .5.3.8.8.8.4 0 .8-.3.8-.8s-.4-.8-.8-.8zm3.2 0c-.5 0-.9.4-.9.8 0 .5.4.8.9.8.4 0 .8-.3.8-.8s-.4-.8-.8-.8zm3.2 0c-.5 0-.8.4-.8.8 0 .5.4.8.8.8.5 0 .8-.3.8-.8s-.3-.8-.8-.8zm3.3 0c-.5 0-.8.4-.8.8 0 .5.3.8.8.8s.8-.3.8-.8-.4-.8-.8-.8zm3.2 0c-.5 0-.8.4-.8.8 0 .5.4.8.8.8s.8-.3.8-.8-.4-.8-.8-.8zm3.2 0c-.4 0-.8.4-.8.8 0 .5.4.8.8.8.5 0 .9-.3.9-.8s-.4-.8-.9-.8zm3.3 0c-.5 0-.8.4-.8.8 0 .5.4.8.8.8.5 0 .8-.3.8-.8s-.4-.8-.8-.8zm3.2 0c-.5 0-.8.4-.8.8 0 .5.3.8.8.8s.8-.3.8-.8-.4-.8-.8-.8zm3.2 0c-.5 0-.8.4-.8.8 0 .5.4.8.8.8s.8-.3.8-.8-.4-.8-.8-.8zm3.3 0c-.4 0-.8.4-.8.8 0 .5.4.8.8.8.5 0 .8-.3.8-.8s-.4-.8-.8-.8zm3.2 0c-.5 0-.8.4-.8.8 0 .5.3.8.8.8s.8-.3.8-.8-.4-.8-.8-.8zm3.2 0c-.5 0-.8.3-.8.8s.3.8.8.8.8-.3.8-.8-.3-.8-.8-.8zm3.2 0c-.5 0-.8.3-.8.8s.4.8.8.8.8-.3.8-.8-.3-.8-.8-.8zm-42 3.2c-.5 0-.8.4-.8.8s.4.8.8.8.8-.4.8-.8c0-.5-.3-.8-.8-.8zm-3.2 0c-.4 0-.8.4-.8.8s.4.8.8.8c.5 0 .8-.4.8-.8s-.4-.8-.8-.8zm6.5 0c-.5 0-.8.4-.8.8s.3.8.8.8c.4 0 .8-.4.8-.8s-.4-.8-.8-.8zm3.2 0c-.5 0-.9.4-.9.8s.4.8.9.8c.4 0 .8-.4.8-.8s-.4-.8-.8-.8zm3.2 0c-.5 0-.8.4-.8.8s.4.8.8.8c.5 0 .8-.4.8-.8s-.3-.8-.8-.8zm3.3 0c-.5 0-.8.4-.8.8s.3.8.8.8.8-.4.8-.8-.4-.8-.8-.8zm3.2 0c-.5 0-.8.4-.8.8s.4.8.8.8.8-.4.8-.8-.4-.8-.8-.8zm3.2 0c-.4 0-.8.4-.8.8s.4.8.8.8c.5 0 .9-.4.9-.8s-.4-.8-.9-.8zm3.3 0c-.5 0-.8.4-.8.8s.4.8.8.8c.5 0 .8-.4.8-.8s-.4-.8-.8-.8zm3.2 0c-.5 0-.8.4-.8.8s.3.8.8.8.8-.4.8-.8-.4-.8-.8-.8zm3.2 0c-.5 0-.8.4-.8.8s.4.8.8.8.8-.4.8-.8-.4-.8-.8-.8zm3.3 0c-.4 0-.8.4-.8.8s.4.8.8.8c.5 0 .8-.4.8-.8s-.4-.8-.8-.8zm3.2 0c-.5 0-.8.4-.8.8s.3.8.8.8.8-.4.8-.8-.4-.8-.8-.8zm3.2 0c-.5 0-.8.4-.8.8s.3.8.8.8.8-.4.8-.8c0-.5-.3-.8-.8-.8zm3.2 0c-.5 0-.8.4-.8.8s.4.8.8.8.8-.4.8-.8c0-.5-.3-.8-.8-.8zm-42 3.2c-.5 0-.8.4-.8.8 0 .5.4.8.8.8s.8-.4.8-.8-.3-.8-.8-.8zm-3.2 0c-.4 0-.8.4-.8.8 0 .5.4.8.8.8.5 0 .8-.3.8-.8 0-.4-.4-.8-.8-.8zm42 0c-.5 0-.8.4-.8.8 0 .5.3.8.8.8s.8-.4.8-.8-.3-.8-.8-.8zm3.2 0c-.5 0-.8.4-.8.8 0 .5.4.8.8.8s.8-.4.8-.8-.3-.8-.8-.8zm-38.7 0c-.5 0-.8.3-.8.8s.3.8.8.8c.4 0 .8-.3.8-.8 0-.4-.4-.8-.8-.8zm3.2 0c-.5 0-.9.3-.9.8s.4.8.9.8c.4 0 .8-.3.8-.8 0-.4-.4-.8-.8-.8zm3.2 0c-.5 0-.8.3-.8.8s.4.8.8.8c.5 0 .8-.3.8-.8 0-.4-.3-.8-.8-.8zm3.3 0c-.5 0-.8.3-.8.8s.3.8.8.8.8-.3.8-.8c0-.4-.4-.8-.8-.8zm3.2 0c-.5 0-.8.3-.8.8s.4.8.8.8.8-.3.8-.8c0-.4-.4-.8-.8-.8zm3.2 0c-.4 0-.8.3-.8.8s.4.8.8.8c.5 0 .9-.3.9-.8 0-.4-.4-.8-.9-.8zm3.3 0c-.5 0-.8.3-.8.8s.4.8.8.8c.5 0 .8-.3.8-.8 0-.4-.4-.8-.8-.8zm3.2 0c-.5 0-.8.3-.8.8s.3.8.8.8.8-.3.8-.8c0-.4-.4-.8-.8-.8zm3.2 0c-.5 0-.8.3-.8.8s.4.8.8.8.8-.3.8-.8c0-.4-.4-.8-.8-.8zm3.3 0c-.4 0-.8.3-.8.8s.4.8.8.8c.5 0 .8-.3.8-.8 0-.4-.4-.8-.8-.8zm3.2 0c-.5 0-.8.3-.8.8s.3.8.8.8.8-.3.8-.8c0-.4-.4-.8-.8-.8zm16.1 3.2c-.5 0-.8.4-.8.8 0 .5.3.8.8.8s.8-.4.8-.8c.1-.5-.3-.8-.8-.8zm-51.7 0c-.5 0-.8.4-.8.8 0 .5.4.8.8.8s.8-.4.8-.8-.3-.8-.8-.8zm-3.2 0c-.4 0-.8.3-.8.8s.4.8.8.8c.5 0 .8-.3.8-.8 0-.4-.4-.8-.8-.8zm6.5 0c-.5 0-.8.3-.8.8s.3.8.8.8c.4 0 .8-.4.8-.8s-.4-.8-.8-.8zm3.2 0c-.5 0-.9.3-.9.8s.4.8.9.8c.4 0 .8-.4.8-.8s-.4-.8-.8-.8zm3.2 0c-.5 0-.8.3-.8.8s.4.8.8.8c.5 0 .8-.4.8-.8s-.3-.8-.8-.8zm3.3 0c-.5 0-.8.3-.8.8s.3.8.8.8.8-.4.8-.8-.4-.8-.8-.8zm3.2 0c-.5 0-.8.3-.8.8s.4.8.8.8.8-.4.8-.8-.4-.8-.8-.8zm3.2 0c-.4 0-.8.3-.8.8s.4.8.8.8c.5 0 .9-.4.9-.8s-.4-.8-.9-.8zm13 0c-.4 0-.8.3-.8.8s.4.8.8.8c.5 0 .8-.4.8-.8s-.4-.8-.8-.8zm3.2 0c-.5 0-.8.3-.8.8s.3.8.8.8.8-.4.8-.8-.4-.8-.8-.8zm16.1 3.2c-.5 0-.8.3-.8.8s.3.8.8.8.8-.4.8-.8-.3-.8-.8-.8zm-6.4 0c-.4 0-.8.4-.8.8 0 .5.4.8.8.8.5 0 .9-.3.9-.8-.1-.4-.5-.8-.9-.8zm3.2 0c-.5 0-.8.4-.8.8 0 .5.3.8.8.8s.8-.3.8-.8c0-.4-.4-.8-.8-.8zm-45.2.1c-.5 0-.8.3-.8.8s.3.8.8.8c.4 0 .8-.4.8-.8 0-.5-.4-.8-.8-.8zm3.2 0c-.5 0-.9.3-.9.8s.4.8.9.8c.4 0 .8-.4.8-.8 0-.5-.4-.8-.8-.8zm3.2 0c-.5 0-.8.3-.8.8s.4.8.8.8c.5 0 .8-.4.8-.8 0-.5-.3-.8-.8-.8zm3.3 0c-.5 0-.8.3-.8.8s.3.8.8.8.8-.4.8-.8c0-.5-.4-.8-.8-.8zm3.2 0c-.5 0-.8.3-.8.8s.4.8.8.8.8-.4.8-.8c0-.5-.4-.8-.8-.8zm3.2 0c-.4 0-.8.3-.8.8s.4.8.8.8c.5 0 .9-.4.9-.8 0-.5-.4-.8-.9-.8zm32.3 3.1c-.5 0-.8.4-.8.8s.3.8.8.8.8-.3.8-.8-.3-.8-.8-.8zm-3.2.1c-.5 0-.8.4-.8.8s.3.8.8.8.8-.4.8-.8c0-.5-.4-.8-.8-.8zm3.2 3.2c-.5 0-.8.4-.8.8 0 .5.3.8.8.8s.8-.4.8-.8c.1-.4-.3-.8-.8-.8zm-6.4 0c-.4 0-.8.4-.8.8 0 .5.4.8.8.8.5 0 .9-.4.9-.8-.1-.4-.5-.8-.9-.8zm3.2 0c-.5 0-.8.4-.8.8 0 .5.3.8.8.8s.8-.4.8-.8-.4-.8-.8-.8zm0 3.2c-.5 0-.8.3-.8.8s.3.8.8.8.8-.3.8-.8-.4-.8-.8-.8z" clip-rule="evenodd" class="svgShape colorffffff-3 selectable"/></g></svg></g></svg>